<?xml version="1.0" ?><!DOCTYPE svg  PUBLIC '-//W3C//DTD SVG 1.1//EN'  'http://www.w3.org/Graphics/SVG/1.1/DTD/svg11.dtd'><svg height="43.3492mm" style="shape-rendering:geometricPrecision; text-rendering:geometricPrecision; image-rendering:optimizeQuality; fill-rule:evenodd; clip-rule:evenodd" version="1.1" viewBox="0 0 4335 4335" width="43.3492mm" fill="white" xml:space="preserve" xmlns="http://www.w3.org/2000/svg" xmlns:xlink="http://www.w3.org/1999/xlink"><g id="Layer_x0020_1"><path class="fil0" d="M1479 2622l0 -1022 0 -12 921 -851c0,0 232,-98 232,105l0 636 -1153 1153 0 -11zm1153 -628l0 70 0 1 0 2 0 2 0 1 0 5 0 7 0 1 0 7 0 6 0 4 0 8 0 2 0 8 0 4 0 6 0 7 0 1 0 7 0 5 0 1 0 2 0 2 0 1 0 1221c0,204 -232,105 -232,105l-654 -604 886 -886zm339 -339c131,108 215,272 215,455 0,281 -197,517 -460,576l0 -785 246 -246zm-2110 -53l506 0 0 1033 -506 0c-155,0 -281,-127 -281,-281l0 -471c0,-155 127,-281 281,-281z"/><polygon class="fil0 str0" points="2853,1687 2853,1687 3700,840 3523,663 1651,2536 1651,2536 804,3382 981,3559 "/></g></svg>